<mxfile host="app.diagrams.net" modified="2024-01-01T04:55:05.342Z" agent="Mozilla/5.0 (Macintosh; Intel Mac OS X 10.15; rv:121.0) Gecko/20100101 Firefox/121.0" etag="zAMAlFpW_JMJaIdfeDbP" version="22.1.16" type="github">
  <diagram name="Page-1" id="Phn4H7adVwEMAnD9Mgu_">
    <mxGraphModel dx="1469" dy="1499" grid="0" gridSize="10" guides="1" tooltips="1" connect="1" arrows="1" fold="1" page="0" pageScale="1" pageWidth="850" pageHeight="1100" math="0" shadow="0">
      <root>
        <mxCell id="0" />
        <mxCell id="1" parent="0" />
        <mxCell id="48OR14MlwbGEtRvsL92H-1" value="" style="edgeStyle=orthogonalEdgeStyle;rounded=0;orthogonalLoop=1;jettySize=auto;html=1;" edge="1" parent="1" source="3JCANutJUR9ApltmS873-1" target="3JCANutJUR9ApltmS873-2">
          <mxGeometry relative="1" as="geometry" />
        </mxCell>
        <mxCell id="3JCANutJUR9ApltmS873-1" value="Fiber" style="ellipse;shape=cloud;whiteSpace=wrap;html=1;" parent="1" vertex="1">
          <mxGeometry x="350" y="-5" width="120" height="80" as="geometry" />
        </mxCell>
        <mxCell id="48OR14MlwbGEtRvsL92H-2" value="" style="edgeStyle=orthogonalEdgeStyle;rounded=0;orthogonalLoop=1;jettySize=auto;html=1;" edge="1" parent="1" source="3JCANutJUR9ApltmS873-2" target="3JCANutJUR9ApltmS873-4">
          <mxGeometry relative="1" as="geometry" />
        </mxCell>
        <mxCell id="3JCANutJUR9ApltmS873-2" value="&lt;div&gt;Google&lt;/div&gt;&lt;div&gt;Router&lt;/div&gt;" style="ellipse;whiteSpace=wrap;html=1;aspect=fixed;" parent="1" vertex="1">
          <mxGeometry x="370" y="113" width="80" height="80" as="geometry" />
        </mxCell>
        <mxCell id="48OR14MlwbGEtRvsL92H-9" style="edgeStyle=orthogonalEdgeStyle;rounded=0;orthogonalLoop=1;jettySize=auto;html=1;" edge="1" parent="1" source="3JCANutJUR9ApltmS873-3" target="3JCANutJUR9ApltmS873-34">
          <mxGeometry relative="1" as="geometry" />
        </mxCell>
        <mxCell id="3JCANutJUR9ApltmS873-3" value="MikroTik CRS305 10G Switch" style="rounded=0;whiteSpace=wrap;html=1;" parent="1" vertex="1">
          <mxGeometry x="100" y="370" width="120" height="60" as="geometry" />
        </mxCell>
        <mxCell id="48OR14MlwbGEtRvsL92H-3" style="edgeStyle=orthogonalEdgeStyle;rounded=0;orthogonalLoop=1;jettySize=auto;html=1;" edge="1" parent="1" source="3JCANutJUR9ApltmS873-4" target="3JCANutJUR9ApltmS873-29">
          <mxGeometry relative="1" as="geometry" />
        </mxCell>
        <mxCell id="48OR14MlwbGEtRvsL92H-4" style="edgeStyle=orthogonalEdgeStyle;rounded=0;orthogonalLoop=1;jettySize=auto;html=1;" edge="1" parent="1" source="3JCANutJUR9ApltmS873-4" target="3JCANutJUR9ApltmS873-7">
          <mxGeometry relative="1" as="geometry" />
        </mxCell>
        <mxCell id="48OR14MlwbGEtRvsL92H-5" style="edgeStyle=orthogonalEdgeStyle;rounded=0;orthogonalLoop=1;jettySize=auto;html=1;" edge="1" parent="1" source="3JCANutJUR9ApltmS873-4" target="3JCANutJUR9ApltmS873-39">
          <mxGeometry relative="1" as="geometry" />
        </mxCell>
        <mxCell id="48OR14MlwbGEtRvsL92H-6" style="edgeStyle=orthogonalEdgeStyle;rounded=0;orthogonalLoop=1;jettySize=auto;html=1;" edge="1" parent="1" source="3JCANutJUR9ApltmS873-4" target="3JCANutJUR9ApltmS873-40">
          <mxGeometry relative="1" as="geometry" />
        </mxCell>
        <mxCell id="48OR14MlwbGEtRvsL92H-7" style="edgeStyle=orthogonalEdgeStyle;rounded=0;orthogonalLoop=1;jettySize=auto;html=1;" edge="1" parent="1" source="3JCANutJUR9ApltmS873-4" target="3JCANutJUR9ApltmS873-3">
          <mxGeometry relative="1" as="geometry" />
        </mxCell>
        <mxCell id="48OR14MlwbGEtRvsL92H-10" style="edgeStyle=orthogonalEdgeStyle;rounded=0;orthogonalLoop=1;jettySize=auto;html=1;" edge="1" parent="1" source="3JCANutJUR9ApltmS873-4" target="3JCANutJUR9ApltmS873-16">
          <mxGeometry relative="1" as="geometry">
            <Array as="points">
              <mxPoint x="661" y="270" />
              <mxPoint x="661" y="436" />
            </Array>
          </mxGeometry>
        </mxCell>
        <mxCell id="48OR14MlwbGEtRvsL92H-17" style="edgeStyle=orthogonalEdgeStyle;rounded=0;orthogonalLoop=1;jettySize=auto;html=1;entryX=0;entryY=0.5;entryDx=0;entryDy=0;" edge="1" parent="1" source="3JCANutJUR9ApltmS873-4" target="3JCANutJUR9ApltmS873-17">
          <mxGeometry relative="1" as="geometry" />
        </mxCell>
        <mxCell id="48OR14MlwbGEtRvsL92H-22" style="edgeStyle=orthogonalEdgeStyle;rounded=0;orthogonalLoop=1;jettySize=auto;html=1;" edge="1" parent="1" source="3JCANutJUR9ApltmS873-4" target="48OR14MlwbGEtRvsL92H-18">
          <mxGeometry relative="1" as="geometry" />
        </mxCell>
        <mxCell id="48OR14MlwbGEtRvsL92H-23" style="edgeStyle=orthogonalEdgeStyle;rounded=0;orthogonalLoop=1;jettySize=auto;html=1;entryX=0;entryY=0.5;entryDx=0;entryDy=0;" edge="1" parent="1" source="3JCANutJUR9ApltmS873-4" target="48OR14MlwbGEtRvsL92H-21">
          <mxGeometry relative="1" as="geometry" />
        </mxCell>
        <mxCell id="3JCANutJUR9ApltmS873-4" value="&lt;div&gt;TP-Link&amp;nbsp;&lt;/div&gt;&lt;div&gt;TL-SG2428P&lt;/div&gt;&lt;div&gt;1G 24port PoE Switch&lt;br&gt;&lt;/div&gt;" style="rounded=1;whiteSpace=wrap;html=1;" parent="1" vertex="1">
          <mxGeometry x="305" y="240" width="210" height="60" as="geometry" />
        </mxCell>
        <mxCell id="3JCANutJUR9ApltmS873-7" value="&lt;div&gt;TP-Link&amp;nbsp;&lt;/div&gt;&lt;div&gt;EAP225 WAP&lt;/div&gt;&lt;div&gt;Basement&lt;br&gt;&lt;/div&gt;" style="sketch=0;pointerEvents=1;shadow=0;dashed=0;html=1;aspect=fixed;labelPosition=center;verticalLabelPosition=bottom;verticalAlign=top;align=center;outlineConnect=0;shape=mxgraph.vvd.wi_fi;" parent="1" vertex="1">
          <mxGeometry x="563" y="452" width="50" height="50" as="geometry" />
        </mxCell>
        <mxCell id="48OR14MlwbGEtRvsL92H-12" style="edgeStyle=orthogonalEdgeStyle;rounded=0;orthogonalLoop=1;jettySize=auto;html=1;" edge="1" parent="1" source="3JCANutJUR9ApltmS873-10" target="3JCANutJUR9ApltmS873-22">
          <mxGeometry relative="1" as="geometry">
            <Array as="points">
              <mxPoint x="943" y="33" />
            </Array>
          </mxGeometry>
        </mxCell>
        <mxCell id="48OR14MlwbGEtRvsL92H-14" style="edgeStyle=orthogonalEdgeStyle;rounded=0;orthogonalLoop=1;jettySize=auto;html=1;" edge="1" parent="1" source="3JCANutJUR9ApltmS873-10" target="3JCANutJUR9ApltmS873-30">
          <mxGeometry relative="1" as="geometry">
            <Array as="points">
              <mxPoint x="1004" y="122" />
              <mxPoint x="1004" y="122" />
            </Array>
          </mxGeometry>
        </mxCell>
        <mxCell id="48OR14MlwbGEtRvsL92H-15" style="edgeStyle=orthogonalEdgeStyle;rounded=0;orthogonalLoop=1;jettySize=auto;html=1;" edge="1" parent="1" source="3JCANutJUR9ApltmS873-10" target="3JCANutJUR9ApltmS873-25">
          <mxGeometry relative="1" as="geometry">
            <Array as="points">
              <mxPoint x="943" y="219" />
            </Array>
          </mxGeometry>
        </mxCell>
        <mxCell id="3JCANutJUR9ApltmS873-10" value="&lt;div&gt;TP-Link&amp;nbsp;&lt;/div&gt;&lt;div&gt;EAP225 WAP&lt;/div&gt;&lt;div&gt;Basement&lt;br&gt;&lt;/div&gt;" style="sketch=0;pointerEvents=1;shadow=0;dashed=0;html=1;aspect=fixed;labelPosition=center;verticalLabelPosition=bottom;verticalAlign=top;align=center;outlineConnect=0;shape=mxgraph.vvd.wi_fi;" parent="1" vertex="1">
          <mxGeometry x="918" y="110" width="50" height="50" as="geometry" />
        </mxCell>
        <mxCell id="48OR14MlwbGEtRvsL92H-13" style="edgeStyle=orthogonalEdgeStyle;rounded=0;orthogonalLoop=1;jettySize=auto;html=1;" edge="1" parent="1" target="3JCANutJUR9ApltmS873-32">
          <mxGeometry relative="1" as="geometry">
            <mxPoint x="943.0000000000005" y="220" as="sourcePoint" />
            <Array as="points">
              <mxPoint x="943" y="313" />
            </Array>
          </mxGeometry>
        </mxCell>
        <mxCell id="3JCANutJUR9ApltmS873-15" value="" style="shape=mxgraph.signs.tech.computer;html=1;pointerEvents=1;verticalLabelPosition=bottom;verticalAlign=top;align=center;" parent="1" vertex="1">
          <mxGeometry x="207" y="470" width="50" height="50" as="geometry" />
        </mxCell>
        <mxCell id="48OR14MlwbGEtRvsL92H-11" style="edgeStyle=orthogonalEdgeStyle;rounded=0;orthogonalLoop=1;jettySize=auto;html=1;" edge="1" parent="1" source="3JCANutJUR9ApltmS873-16" target="3JCANutJUR9ApltmS873-10">
          <mxGeometry relative="1" as="geometry">
            <Array as="points">
              <mxPoint x="859" y="135" />
            </Array>
          </mxGeometry>
        </mxCell>
        <mxCell id="3JCANutJUR9ApltmS873-16" value="&lt;div&gt;TP-Link TL-SG108&lt;/div&gt;&lt;div&gt;1G 8port Switch&lt;br&gt;&lt;/div&gt;" style="rounded=1;whiteSpace=wrap;html=1;" parent="1" vertex="1">
          <mxGeometry x="805" y="406" width="120" height="60" as="geometry" />
        </mxCell>
        <mxCell id="48OR14MlwbGEtRvsL92H-24" value="" style="edgeStyle=orthogonalEdgeStyle;rounded=0;orthogonalLoop=1;jettySize=auto;html=1;entryX=0.5;entryY=1;entryDx=0;entryDy=0;" edge="1" parent="1" source="3JCANutJUR9ApltmS873-17" target="48OR14MlwbGEtRvsL92H-19">
          <mxGeometry relative="1" as="geometry" />
        </mxCell>
        <mxCell id="48OR14MlwbGEtRvsL92H-25" style="edgeStyle=orthogonalEdgeStyle;rounded=0;orthogonalLoop=1;jettySize=auto;html=1;" edge="1" parent="1" source="3JCANutJUR9ApltmS873-17" target="48OR14MlwbGEtRvsL92H-20">
          <mxGeometry relative="1" as="geometry" />
        </mxCell>
        <mxCell id="3JCANutJUR9ApltmS873-17" value="&lt;div&gt;TP-Link TL-SG108&lt;/div&gt;&lt;div&gt;1G 8port Switch&lt;br&gt;&lt;/div&gt;" style="rounded=1;whiteSpace=wrap;html=1;" parent="1" vertex="1">
          <mxGeometry x="805" y="488" width="120" height="60" as="geometry" />
        </mxCell>
        <mxCell id="3JCANutJUR9ApltmS873-19" value="MacStudio" style="text;html=1;align=center;verticalAlign=middle;resizable=0;points=[];autosize=1;" parent="1" vertex="1">
          <mxGeometry x="192" y="522" width="80" height="30" as="geometry" />
        </mxCell>
        <mxCell id="3JCANutJUR9ApltmS873-22" value="MacBook Pro" style="sketch=0;pointerEvents=1;shadow=0;dashed=0;html=1;aspect=fixed;labelPosition=center;verticalLabelPosition=bottom;verticalAlign=top;align=center;outlineConnect=0;shape=mxgraph.vvd.laptop;" parent="1" vertex="1">
          <mxGeometry x="1095" y="17" width="50" height="36" as="geometry" />
        </mxCell>
        <mxCell id="3JCANutJUR9ApltmS873-25" value="iPad" style="sketch=0;pointerEvents=1;shadow=0;dashed=0;html=1;labelPosition=center;verticalLabelPosition=bottom;verticalAlign=top;outlineConnect=0;align=center;shape=mxgraph.office.devices.tablet_ipad;" parent="1" vertex="1">
          <mxGeometry x="1100.5" y="190" width="39" height="52" as="geometry" />
        </mxCell>
        <mxCell id="3JCANutJUR9ApltmS873-29" value="PoE Cameras" style="sketch=0;outlineConnect=0;dashed=0;verticalLabelPosition=bottom;verticalAlign=top;align=center;html=1;fontSize=12;fontStyle=0;aspect=fixed;shape=mxgraph.aws4.resourceIcon;resIcon=mxgraph.aws4.camera;" parent="1" vertex="1">
          <mxGeometry x="717" y="240" width="60" height="60" as="geometry" />
        </mxCell>
        <mxCell id="3JCANutJUR9ApltmS873-30" value="iPhone" style="sketch=0;pointerEvents=1;shadow=0;dashed=0;html=1;labelPosition=center;verticalLabelPosition=bottom;verticalAlign=top;outlineConnect=0;align=center;shape=mxgraph.office.devices.cell_phone_iphone_standalone;" parent="1" vertex="1">
          <mxGeometry x="1107.5" y="101" width="25" height="42" as="geometry" />
        </mxCell>
        <mxCell id="3JCANutJUR9ApltmS873-32" value="Pixel" style="sketch=0;pointerEvents=1;shadow=0;dashed=0;html=1;labelPosition=center;verticalLabelPosition=bottom;verticalAlign=top;outlineConnect=0;align=center;shape=mxgraph.office.devices.cell_phone_android_proportional;" parent="1" vertex="1">
          <mxGeometry x="1105" y="288" width="30" height="49" as="geometry" />
        </mxCell>
        <mxCell id="3JCANutJUR9ApltmS873-34" value="&lt;div&gt;Lenovo x3650&lt;/div&gt;&lt;div&gt;Server&lt;/div&gt;" style="sketch=0;outlineConnect=0;dashed=0;verticalLabelPosition=bottom;verticalAlign=top;align=center;html=1;fontSize=12;fontStyle=0;aspect=fixed;shape=mxgraph.aws4.resourceIcon;resIcon=mxgraph.aws4.traditional_server;" parent="1" vertex="1">
          <mxGeometry x="60" y="470" width="60" height="60" as="geometry" />
        </mxCell>
        <mxCell id="3JCANutJUR9ApltmS873-39" value="&lt;div&gt;Lenovo ThinkCentre&amp;nbsp;&lt;/div&gt;&lt;div&gt;M910q Server&lt;/div&gt;" style="sketch=0;outlineConnect=0;dashed=0;verticalLabelPosition=bottom;verticalAlign=top;align=center;html=1;fontSize=12;fontStyle=0;aspect=fixed;shape=mxgraph.aws4.resourceIcon;resIcon=mxgraph.aws4.traditional_server;" parent="1" vertex="1">
          <mxGeometry x="447" y="360" width="60" height="60" as="geometry" />
        </mxCell>
        <mxCell id="3JCANutJUR9ApltmS873-40" value="Synology DS920+" style="sketch=0;outlineConnect=0;dashed=0;verticalLabelPosition=bottom;verticalAlign=top;align=center;html=1;fontSize=12;fontStyle=0;aspect=fixed;shape=mxgraph.aws4.resourceIcon;resIcon=mxgraph.aws4.traditional_server;" parent="1" vertex="1">
          <mxGeometry x="319" y="360" width="60" height="60" as="geometry" />
        </mxCell>
        <mxCell id="48OR14MlwbGEtRvsL92H-8" style="edgeStyle=orthogonalEdgeStyle;rounded=0;orthogonalLoop=1;jettySize=auto;html=1;entryX=0.5;entryY=0;entryDx=0;entryDy=0;entryPerimeter=0;" edge="1" parent="1" source="3JCANutJUR9ApltmS873-3" target="3JCANutJUR9ApltmS873-15">
          <mxGeometry relative="1" as="geometry" />
        </mxCell>
        <mxCell id="48OR14MlwbGEtRvsL92H-18" value="PiHole" style="ellipse;whiteSpace=wrap;html=1;" vertex="1" parent="1">
          <mxGeometry x="375" y="458" width="70" height="49" as="geometry" />
        </mxCell>
        <mxCell id="48OR14MlwbGEtRvsL92H-19" value="Smart IoT Devices" style="rounded=0;whiteSpace=wrap;html=1;" vertex="1" parent="1">
          <mxGeometry x="975" y="420" width="120" height="60" as="geometry" />
        </mxCell>
        <mxCell id="48OR14MlwbGEtRvsL92H-20" value="TV" style="sketch=0;pointerEvents=1;shadow=0;dashed=0;html=1;strokeColor=none;fillColor=#505050;labelPosition=center;verticalLabelPosition=bottom;verticalAlign=top;outlineConnect=0;align=center;shape=mxgraph.office.devices.tv;" vertex="1" parent="1">
          <mxGeometry x="1005.5" y="559" width="59" height="45" as="geometry" />
        </mxCell>
        <mxCell id="48OR14MlwbGEtRvsL92H-21" value="PoE Doorbell" style="ellipse;whiteSpace=wrap;html=1;" vertex="1" parent="1">
          <mxGeometry x="661" y="180" width="60" height="62" as="geometry" />
        </mxCell>
      </root>
    </mxGraphModel>
  </diagram>
</mxfile>
